<?xml version="1.0" encoding="iso-8859-1"?>
<!-- Generator: Adobe Illustrator 27.0.0, SVG Export Plug-In . SVG Version: 6.00 Build 0)  -->
<svg version="1.1" id="Layer_1" xmlns="http://www.w3.org/2000/svg" xmlns:xlink="http://www.w3.org/1999/xlink" x="0px" y="0px"
	 viewBox="0 0 1891.764 350" style="enable-background:new 0 0 1891.764 350;" xml:space="preserve">
<g>
	<g>
		<g>
			<g>
				<path d="M458.428,256.608c-11.178-5.791-19.909-13.83-26.19-24.111c-6.284-10.279-9.423-21.945-9.423-35.003
					c0-13.054,3.139-24.722,9.423-35.004c6.281-10.28,15.012-18.315,26.19-24.109c11.177-5.792,23.782-8.691,37.819-8.691
					c13.869,0,25.985,2.899,36.348,8.691c10.364,5.794,17.908,14.074,22.643,24.844l-29.618,15.91
					c-6.854-12.074-16.729-18.113-29.618-18.113c-9.955,0-18.198,3.265-24.723,9.791c-6.529,6.528-9.79,15.421-9.79,26.68
					c0,11.26,3.261,20.155,9.79,26.683c6.525,6.527,14.768,9.789,24.723,9.789c13.053,0,22.924-6.035,29.618-18.114l29.618,16.155
					c-4.735,10.447-12.28,18.604-22.643,24.479c-10.364,5.874-22.479,8.811-36.348,8.811
					C482.21,265.296,469.605,262.402,458.428,256.608z"/>
			</g>
			<g>
				<path d="M605.781,256.608c-11.015-5.791-19.625-13.83-25.825-24.111c-6.204-10.279-9.301-21.945-9.301-35.003
					c0-13.054,3.097-24.722,9.301-35.004c6.2-10.28,14.81-18.315,25.825-24.109c11.015-5.792,23.456-8.691,37.33-8.691
					c13.866,0,26.27,2.899,37.204,8.691c10.932,5.794,19.5,13.829,25.702,24.109c6.2,10.282,9.302,21.95,9.302,35.004
					c0,13.057-3.102,24.723-9.302,35.003c-6.201,10.28-14.77,18.32-25.702,24.111c-10.934,5.794-23.338,8.688-37.204,8.688
					C629.237,265.296,616.796,262.402,605.781,256.608z M667.221,224.052c6.279-6.611,9.424-15.46,9.424-26.558
					c0-11.096-3.145-19.95-9.424-26.559c-6.284-6.607-14.321-9.912-24.11-9.912c-9.792,0-17.871,3.304-24.233,9.912
					c-6.366,6.61-9.547,15.463-9.547,26.559c0,11.098,3.182,19.947,9.547,26.558c6.362,6.61,14.441,9.913,24.233,9.913
					C652.9,233.966,660.938,230.662,667.221,224.052z"/>
			</g>
			<g>
				<path d="M865.245,144.378c10.035,9.791,15.055,24.317,15.055,43.57v75.392h-38.187v-69.516c0-10.441-2.288-18.236-6.854-23.377
					c-4.571-5.141-11.18-7.709-19.826-7.709c-9.63,0-17.3,2.978-23.008,8.934c-5.714,5.959-8.569,14.809-8.569,26.556v65.112
					h-38.184v-131.69h36.473v15.422c5.054-5.546,11.338-9.829,18.847-12.851c7.504-3.018,15.746-4.529,24.721-4.529
					C842.029,129.69,855.209,134.587,865.245,144.378z"/>
			</g>
			<g>
				<path d="M999.013,256.976c-3.757,2.776-8.366,4.858-13.83,6.24c-5.469,1.384-11.137,2.08-17.012,2.08
					c-15.831,0-27.989-3.996-36.471-11.992c-8.487-7.994-12.729-19.742-12.729-35.25V102.521h38.187v32.066h32.553v29.374h-32.553
					v53.605c0,5.549,1.384,9.833,4.16,12.85c2.773,3.023,6.769,4.529,11.994,4.529c5.875,0,11.096-1.629,15.666-4.896
					L999.013,256.976z"/>
			</g>
			<g>
				<path d="M1080.396,134.587c7.75-3.261,16.682-4.896,26.803-4.896v35.249c-4.246-0.326-7.098-0.492-8.569-0.492
					c-10.934,0-19.498,3.061-25.698,9.18c-6.205,6.12-9.303,15.299-9.303,27.538v62.173h-38.183v-131.69h36.471v17.38
					C1066.482,142.663,1072.646,137.853,1080.396,134.587z"/>
			</g>
			<g>
				<path d="M1267.284,131.649v131.69h-36.473v-15.175c-9.465,11.423-23.171,17.132-41.12,17.132
					c-12.405,0-23.619-2.771-33.659-8.32c-10.033-5.546-17.911-13.464-23.618-23.744c-5.716-10.283-8.568-22.192-8.568-35.738
					c0-13.542,2.852-25.457,8.568-35.737c5.708-10.282,13.585-18.194,23.618-23.743c10.04-5.546,21.254-8.324,33.659-8.324
					c16.805,0,29.943,5.305,39.409,15.911v-13.953H1267.284z M1220.288,224.052c6.366-6.611,9.547-15.46,9.547-26.558
					c0-11.096-3.182-19.95-9.547-26.559c-6.366-6.607-14.362-9.912-23.989-9.912c-9.789,0-17.868,3.304-24.231,9.912
					c-6.365,6.61-9.548,15.463-9.548,26.559c0,11.098,3.184,19.947,9.548,26.558c6.362,6.61,14.442,9.913,24.231,9.913
					C1205.927,233.966,1213.923,230.662,1220.288,224.052z"/>
			</g>
			<g>
				<path d="M1333.247,256.608c-11.178-5.791-19.911-13.83-26.193-24.111c-6.283-10.279-9.422-21.945-9.422-35.003
					c0-13.054,3.138-24.722,9.422-35.004c6.282-10.28,15.015-18.315,26.193-24.109c11.177-5.792,23.781-8.691,37.819-8.691
					c13.866,0,25.985,2.899,36.348,8.691c10.359,5.794,17.907,14.074,22.641,24.844l-29.615,15.91
					c-6.857-12.074-16.731-18.113-29.621-18.113c-9.954,0-18.197,3.265-24.722,9.791c-6.526,6.528-9.791,15.421-9.791,26.68
					c0,11.26,3.265,20.155,9.791,26.683c6.525,6.527,14.768,9.789,24.722,9.789c13.055,0,22.927-6.035,29.621-18.114l29.615,16.155
					c-4.734,10.447-12.282,18.604-22.641,24.479c-10.364,5.874-22.483,8.811-36.348,8.811
					C1357.028,265.296,1344.424,262.402,1333.247,256.608z"/>
			</g>
			<g>
				<path d="M1535.063,256.976c-3.758,2.776-8.366,4.858-13.83,6.24c-5.469,1.384-11.138,2.08-17.014,2.08
					c-15.828,0-27.986-3.996-36.47-11.992c-8.485-7.994-12.727-19.742-12.727-35.25V102.521h38.183v32.066h32.557v29.374h-32.557
					v53.605c0,5.549,1.387,9.833,4.162,12.85c2.773,3.023,6.77,4.529,11.992,4.529c5.876,0,11.098-1.629,15.667-4.896
					L1535.063,256.976z"/>
			</g>
			<g>
				<path d="M1694.167,131.649v131.69h-36.227v-15.667c-5.059,5.713-11.102,10.079-18.115,13.096
					c-7.019,3.017-14.607,4.527-22.765,4.527c-17.298,0-31.005-4.974-41.12-14.93c-10.121-9.953-15.177-24.723-15.177-44.306
					v-74.412h38.184v68.783c0,21.215,8.894,31.821,26.681,31.821c9.134,0,16.479-2.975,22.03-8.935
					c5.544-5.955,8.325-14.809,8.325-26.558v-65.111H1694.167z"/>
			</g>
			<g>
				<path d="M1759.886,256.608c-11.014-5.791-19.626-13.83-25.823-24.111c-6.204-10.279-9.302-21.945-9.302-35.003
					c0-13.054,3.098-24.722,9.302-35.004c6.197-10.28,14.809-18.315,25.823-24.109c11.016-5.792,23.456-8.691,37.326-8.691
					c13.871,0,26.273,2.899,37.208,8.691c10.932,5.794,19.499,13.829,25.704,24.109c6.197,10.282,9.299,21.95,9.299,35.004
					c0,13.057-3.102,24.723-9.299,35.003c-6.205,10.28-14.772,18.32-25.704,24.111c-10.935,5.794-23.337,8.688-37.208,8.688
					C1783.342,265.296,1770.902,262.402,1759.886,256.608z M1821.322,224.052c6.282-6.611,9.426-15.46,9.426-26.558
					c0-11.096-3.144-19.95-9.426-26.559c-6.285-6.607-14.317-9.912-24.111-9.912c-9.786,0-17.866,3.304-24.231,9.912
					c-6.361,6.61-9.548,15.463-9.548,26.559c0,11.098,3.187,19.947,9.548,26.558c6.365,6.61,14.445,9.913,24.231,9.913
					C1807.005,233.966,1815.038,230.662,1821.322,224.052z"/>
			</g>
		</g>
	</g>
	<g>
		<linearGradient id="SVGID_1_" gradientUnits="userSpaceOnUse" x1="17.7511" y1="175.8038" x2="315.117" y2="175.8038">
			<stop  offset="0.009" style="stop-color:#1E336B"/>
			<stop  offset="1" style="stop-color:#4EE59F"/>
		</linearGradient>
		<path style="fill:url(#SVGID_1_);" d="M266.178,337.021L17.751,131.437L315.117,14.586L266.178,337.021z M26.632,132.856
			l236.24,195.498L309.41,21.738L26.632,132.856z"/>
		
			<linearGradient id="SVGID_00000034056640765989036970000001977745211108874650_" gradientUnits="userSpaceOnUse" x1="97.948" y1="191.7168" x2="357.8156" y2="191.7168" gradientTransform="matrix(0.9877 0.054 -0.054 0.9877 -37.9017 -44.1946)">
			<stop  offset="0.009" style="stop-color:#1E336B"/>
			<stop  offset="1" style="stop-color:#4EE59F"/>
		</linearGradient>
		<path style="fill:url(#SVGID_00000034056640765989036970000001977745211108874650_);" d="M278.058,309.34L49.501,131.905
			l263.642-113.29L278.058,309.34z M58.42,133.044l216.069,167.74l33.167-274.84L58.42,133.044z"/>
		
			<linearGradient id="SVGID_00000013176563374859882300000005274980763824708738_" gradientUnits="userSpaceOnUse" x1="183.8279" y1="201.3629" x2="411.9497" y2="201.3629" gradientTransform="matrix(0.9754 0.1081 -0.1081 0.9754 -75.8034 -88.3892)">
			<stop  offset="0.009" style="stop-color:#1E336B"/>
			<stop  offset="1" style="stop-color:#4EE59F"/>
		</linearGradient>
		<path style="fill:url(#SVGID_00000013176563374859882300000005274980763824708738_);" d="M289.971,281.637L81.251,132.411
			L311.134,22.623L289.971,281.637z M90.207,133.196l195.867,140.037L305.934,30.17L90.207,133.196z"/>
		
			<linearGradient id="SVGID_00000157299683402858096250000015085814580422036897_" gradientUnits="userSpaceOnUse" x1="274.0197" y1="204.2469" x2="485.3109" y2="204.2469" gradientTransform="matrix(0.9632 0.1621 -0.1621 0.9632 -113.705 -132.5838)">
			<stop  offset="0.009" style="stop-color:#1E336B"/>
			<stop  offset="1" style="stop-color:#4EE59F"/>
		</linearGradient>
		<path style="fill:url(#SVGID_00000157299683402858096250000015085814580422036897_);" d="M301.927,253.902L113.007,132.97
			L309.077,26.608L301.927,253.902z M121.989,133.295l175.624,112.422l6.647-211.298L121.989,133.295z"/>
		
			<linearGradient id="SVGID_00000152241936199682345310000015880268937271293346_" gradientUnits="userSpaceOnUse" x1="366.9247" y1="200.1054" x2="557.1193" y2="200.1054" gradientTransform="matrix(0.9509 0.2161 -0.2161 0.9509 -151.6067 -176.7784)">
			<stop  offset="0.009" style="stop-color:#1E336B"/>
			<stop  offset="1" style="stop-color:#4EE59F"/>
		</linearGradient>
		<path style="fill:url(#SVGID_00000152241936199682345310000015880268937271293346_);" d="M313.946,226.115l-169.171-92.506
			l162.17-103.045L313.946,226.115z M153.759,133.314l155.334,84.939l-6.428-179.556L153.759,133.314z"/>
		
			<linearGradient id="SVGID_00000155125798456220045070000009023970404781248421_" gradientUnits="userSpaceOnUse" x1="460.8209" y1="188.9344" x2="625.9724" y2="188.9344" gradientTransform="matrix(0.9386 0.2701 -0.2701 0.9386 -189.5084 -220.973)">
			<stop  offset="0.009" style="stop-color:#1E336B"/>
			<stop  offset="1" style="stop-color:#4EE59F"/>
		</linearGradient>
		<path style="fill:url(#SVGID_00000155125798456220045070000009023970404781248421_);" d="M326.05,198.23l-149.473-63.86
			l128.111-99.882L326.05,198.23z M185.494,133.212l134.99,57.672L301.193,43.007L185.494,133.212z"/>
		
			<linearGradient id="SVGID_00000087406978060256313260000002072082126148499077_" gradientUnits="userSpaceOnUse" x1="553.9947" y1="176.0839" x2="690.5645" y2="176.0839" gradientTransform="matrix(0.9263 0.3242 -0.3242 0.9263 -227.41 -265.1677)">
			<stop  offset="0.009" style="stop-color:#1E336B"/>
			<stop  offset="1" style="stop-color:#4EE59F"/>
		</linearGradient>
		<path style="fill:url(#SVGID_00000087406978060256313260000002072082126148499077_);" d="M338.27,170.17l-129.805-34.85
			l93.755-96.926L338.27,170.17z M217.144,132.92l114.618,30.772L299.93,47.333L217.144,132.92z"/>
		
			<linearGradient id="SVGID_00000160166578266247695020000007537762083991270820_" gradientUnits="userSpaceOnUse" x1="644.897" y1="165.6504" x2="749.7045" y2="165.6504" gradientTransform="matrix(0.914 0.3782 -0.3782 0.914 -265.3117 -309.3622)">
			<stop  offset="0.009" style="stop-color:#1E336B"/>
			<stop  offset="1" style="stop-color:#4EE59F"/>
		</linearGradient>
		<path style="fill:url(#SVGID_00000160166578266247695020000007537762083991270820_);" d="M350.606,141.775l-110.036-5.229
			l58.832-94.183L350.606,141.775z M248.577,132.352l94.346,4.484L299.02,51.598L248.577,132.352z"/>
		
			<linearGradient id="SVGID_00000078020152063510101670000003005628479803909762_" gradientUnits="userSpaceOnUse" x1="713.4269" y1="148.0227" x2="802.2629" y2="148.0227" gradientTransform="matrix(0.9018 0.4322 -0.4322 0.9018 -303.2134 -353.5569)">
			<stop  offset="0.009" style="stop-color:#1E336B"/>
			<stop  offset="1" style="stop-color:#4EE59F"/>
		</linearGradient>
		<path style="fill:url(#SVGID_00000078020152063510101670000003005628479803909762_);" d="M273.167,138.044l22.939-91.389
			l66.802,66.161L273.167,138.044z M298.586,55.54l-19.068,75.972l74.601-20.971L298.586,55.54z"/>
	</g>
</g>
</svg>
